<svg width="488" height="94" viewBox="0 0 488 94" fill="none" xmlns="http://www.w3.org/2000/svg">
<path d="M128.169 57.6771L129.034 57.338C135.977 54.5861 140.127 48.4551 140.127 40.9339C140.127 30.4292 132.043 22.5069 121.326 22.5069H97.709V78.3192H108.825V58.6998H116.128L127.704 78.3192H141.053L128.175 57.6827L128.169 57.6771ZM121.071 49.0201H108.814V33.0851H121.071C125.41 33.0851 128.679 36.5264 128.679 41.0922C128.679 45.6579 125.41 49.0201 121.071 49.0201Z" fill="white"/>
<path d="M167.135 79.3137C155.659 79.3137 148.251 72.5668 148.251 62.1298V37.4644H158.635V60.4685C158.635 65.6559 162.054 69.1424 167.141 69.1424C172.228 69.1424 175.647 65.6559 175.647 60.4685V37.4644H186.031V62.1298C186.031 72.5668 178.617 79.3137 167.146 79.3137H167.135Z" fill="white"/>
<path d="M224.881 78.3192V55.9027C224.881 50.365 221.334 46.6468 216.048 46.6468C210.474 46.6468 206.728 50.4328 206.728 56.0666V78.3192H196.343V37.47H206.728V42.8382L208.03 41.4764C211.205 38.1538 215.272 36.4699 220.121 36.4699C229.314 36.4699 235.26 42.4935 235.26 51.8229V78.3136H224.875L224.881 78.3192Z" fill="white"/>
<path d="M267.571 22.5069H246.159V78.3192H267.571C283.496 78.3192 295.51 66.3227 295.51 50.4159C295.51 34.509 283.496 22.5069 267.571 22.5069ZM267.244 67.7297H257.269V33.0964H267.244C276.83 33.0964 284.067 40.544 284.067 50.4159C284.067 60.2877 276.836 67.7297 267.244 67.7297Z" fill="white"/>
<path d="M309.557 17.1839C305.805 17.1839 302.979 20.0375 302.979 23.8066C302.979 27.5756 305.811 30.514 309.557 30.514C313.303 30.514 316.217 27.6943 316.217 23.8066C316.217 19.9188 313.352 17.1839 309.557 17.1839ZM304.365 37.47V78.3136H314.749V37.47H304.365Z" fill="white"/>
<path d="M351.46 79.4494H338.499C335.844 79.4494 333.988 77.8276 333.988 75.5164C333.988 73.9794 334.775 72.6007 336.205 71.6287L336.498 71.4253L336.842 71.5327C338.648 72.0695 340.582 72.3294 342.743 72.3294C353.56 72.3294 361.711 64.6218 361.711 54.3996C361.711 50.6758 360.664 47.2458 358.586 44.2001L358.386 43.9062L358.475 43.5615C358.968 41.6459 360.791 40.4084 363.118 40.4084H365.296V30.7344H362.548C357.3 30.7344 353.333 33.3789 352.191 37.6396L351.97 38.4815L351.177 38.1538C348.473 37.0349 345.636 36.4642 342.738 36.4642C331.971 36.4642 323.848 44.1718 323.848 54.394C323.848 59.2819 325.704 63.7742 329.073 67.0516L329.793 67.7523L328.94 68.2778C325.698 70.2782 323.598 74.3241 323.598 78.5904C323.598 85.2866 328.547 89.6207 336.205 89.6207H349.166C352.513 89.6207 354.984 91.3103 355.71 94L366.454 90.9995C364.792 83.7496 359.229 79.4437 351.449 79.4437L351.46 79.4494ZM342.738 46.3925C347.448 46.3925 350.994 49.8338 350.994 54.3996C350.994 58.9654 347.448 62.4067 342.738 62.4067C338.028 62.4067 334.559 58.9654 334.559 54.3996C334.559 49.8338 338 46.3925 342.738 46.3925Z" fill="white"/>
<path d="M376.972 17.1839C373.22 17.1839 370.394 20.0375 370.394 23.8066C370.394 27.5756 373.22 30.514 376.972 30.514C380.723 30.514 383.632 27.6943 383.632 23.8066C383.632 19.9188 380.767 17.1839 376.972 17.1839ZM371.779 37.47V78.3136H382.164V37.47H371.779Z" fill="white"/>
<path d="M410.64 79.3137C401.719 79.3137 396.809 74.3354 396.809 65.2886V46.9746H390.531V37.47H396.809V26.9936H407.194V37.47H417.872V46.9746H407.194V63.2939C407.194 67.0629 409.316 69.1424 413.173 69.1424C414.757 69.1424 416.281 68.809 417.877 68.1027V77.7767C415.627 78.856 413.433 79.3137 410.646 79.3137H410.64Z" fill="white"/>
<path d="M455.995 37.47V42.8382L454.693 41.4764C451.562 38.2046 447.407 36.4699 442.68 36.4699C431.68 36.4699 423.385 45.6806 423.385 57.8918C423.385 70.103 431.68 79.3137 442.68 79.3137C447.412 79.3137 451.562 77.5846 454.693 74.3072L455.995 72.9454V78.3136H466.38V37.47H455.995ZM445.046 69.1424C438.851 69.1424 434.18 64.3054 434.18 57.8918C434.18 51.4782 438.851 46.6412 445.046 46.6412C451.241 46.6412 455.995 51.4782 455.995 57.8918C455.995 64.3054 451.291 69.1424 445.046 69.1424Z" fill="white"/>
<path d="M487.736 20.0093H477.352V78.3136H487.736V20.0093Z" fill="white"/>
<path d="M28.3491 0H0V85.942H11.9248V12.1604H28.3491C45.0116 12.1604 58.5711 25.9821 58.5711 42.9795C58.5711 44.4939 58.4602 45.9857 58.2497 47.4436L67.6809 58.4004C69.4984 53.6142 70.4959 48.4099 70.4959 42.9795C70.4903 19.2803 51.5836 0 28.3491 0Z" fill="white"/>
<path d="M43.7538 85.942H23.8274V62.7797L43.7538 85.942Z" fill="white"/>
<path d="M23.8219 25.8973V44.3357L59.6128 85.942H75.4885L49.6552 55.9197L23.8219 25.8973Z" fill="white"/>
</svg>
