<svg width="275" height="53" fill="none" xmlns="http://www.w3.org/2000/svg"><path d="M72.266 32.52l.487-.191c3.915-1.552 6.255-5.009 6.255-9.25 0-5.922-4.558-10.389-10.6-10.389H55.09v31.47h6.268V33.097h4.117l6.527 11.062h7.527l-7.261-11.636-.003-.003zm-4.003-4.881h-6.91v-8.985h6.91c2.447 0 4.29 1.94 4.29 4.515 0 2.574-1.843 4.47-4.29 4.47zM94.236 44.72c-6.47 0-10.648-3.805-10.648-9.69V21.124h5.855v12.971c0 2.925 1.928 4.89 4.796 4.89 2.868 0 4.796-1.965 4.796-4.89v-12.97h5.855V35.03c0 5.884-4.18 9.688-10.648 9.688h-.006zm32.558-.561v-12.64c0-3.122-1.999-5.218-4.98-5.218-3.143 0-5.255 2.135-5.255 5.311v12.547h-5.855V21.127h5.855v3.027l.734-.768c1.791-1.874 4.084-2.823 6.818-2.823 5.183 0 8.535 3.396 8.535 8.656v14.937h-5.855l.003.003zm24.07-31.469h-12.072v31.47h12.072c8.98 0 15.753-6.764 15.753-15.733 0-8.969-6.773-15.736-15.753-15.736zm-.184 25.498h-5.624V18.661h5.624c5.405 0 9.485 4.199 9.485 9.765 0 5.566-4.077 9.762-9.485 9.762zm23.857-28.499c-2.115 0-3.708 1.609-3.708 3.734s1.596 3.782 3.708 3.782 3.756-1.59 3.756-3.782-1.616-3.734-3.756-3.734zm-2.927 11.438v23.029h5.855v-23.03h-5.855zm26.553 23.669h-7.307c-1.497 0-2.544-.914-2.544-2.218 0-.866.444-1.644 1.25-2.192l.166-.114.193.06c1.019.303 2.109.45 3.328.45 6.099 0 10.694-4.346 10.694-10.11 0-2.1-.59-4.033-1.762-5.75l-.112-.166.05-.195c.278-1.08 1.306-1.777 2.618-1.777h1.228v-5.455h-1.55c-2.958 0-5.196 1.491-5.839 3.893l-.125.475-.447-.185a12.385 12.385 0 00-4.758-.952c-6.071 0-10.651 4.345-10.651 10.109 0 2.756 1.047 5.289 2.946 7.137l.406.395-.481.296c-1.828 1.128-3.012 3.41-3.012 5.815 0 3.775 2.79 6.219 7.108 6.219h7.308c1.887 0 3.281.952 3.69 2.469l6.058-1.692c-.937-4.087-4.074-6.515-8.461-6.515l.006.003zm-4.917-18.639c2.655 0 4.655 1.94 4.655 4.515 0 2.574-2 4.515-4.655 4.515-2.656 0-4.612-1.94-4.612-4.515 0-2.574 1.94-4.515 4.612-4.515zm19.302-16.468c-2.115 0-3.709 1.609-3.709 3.734s1.594 3.782 3.709 3.782 3.755-1.59 3.755-3.782-1.615-3.734-3.755-3.734zm-2.928 11.438v23.029h5.855v-23.03h-5.855zm21.911 23.593c-5.03 0-7.798-2.807-7.798-7.908V26.486h-3.54v-5.36h3.54V15.22h5.855v5.907h6.02v5.359h-6.02v9.201c0 2.125 1.197 3.298 3.371 3.298.894 0 1.753-.188 2.653-.587v5.455c-1.269.608-2.506.866-4.078.866h-.003zm25.573-23.593v3.027l-.734-.768c-1.766-1.845-4.109-2.823-6.774-2.823-6.202 0-10.879 5.193-10.879 12.078s4.677 12.078 10.879 12.078c2.668 0 5.008-.974 6.774-2.822l.734-.768v3.027h5.855v-23.03h-5.855zm-6.174 17.858c-3.493 0-6.127-2.728-6.127-6.344s2.634-6.343 6.127-6.343 6.174 2.727 6.174 6.343-2.653 6.344-6.174 6.344zM275 11.282h-5.855v32.873H275V11.283zM15.984 0H0v48.457h6.724v-41.6h9.26c9.395 0 17.04 7.792 17.04 17.376 0 .854-.062 1.695-.181 2.517l5.317 6.178a24.456 24.456 0 001.588-8.695C39.745 10.871 29.084 0 15.984 0z" fill="#0A261F"/><path d="M24.67 48.457H13.435v-13.06l11.235 13.06zM13.431 14.602v10.396l20.18 23.459h8.952L27.997 31.529 13.431 14.602z" fill="#0A261F"/></svg>